<svg width="48" height="48" viewBox="0 0 48 48" fill="none" xmlns="http://www.w3.org/2000/svg">
<rect width="48" height="48" fill="#323238"/>
<g clip-path="url(#clip0)">
<path d="M7.999 0.166534C3.582 0.166534 0 3.76253 0 8.19853C0 11.7465 2.292 14.7565 5.472 15.8195C5.872 15.8935 6.018 15.6455 6.018 15.4325C6.018 15.2415 6.011 14.7365 6.007 14.0665C3.782 14.5515 3.312 12.9895 3.312 12.9895C2.949 12.0615 2.424 11.8145 2.424 11.8145C1.697 11.3165 2.478 11.3265 2.478 11.3265C3.281 11.3835 3.703 12.1545 3.703 12.1545C4.417 13.3815 5.576 13.0275 6.032 12.8215C6.104 12.3025 6.311 11.9485 6.54 11.7475C4.764 11.5445 2.896 10.8555 2.896 7.77853C2.896 6.90153 3.208 6.18453 3.72 5.62253C3.637 5.41953 3.363 4.60253 3.798 3.49753C3.798 3.49753 4.47 3.28153 5.998 4.32053C6.636 4.14253 7.32 4.05353 8.001 4.05053C8.68 4.05453 9.365 4.14253 10.004 4.32153C11.531 3.28253 12.202 3.49853 12.202 3.49853C12.638 4.60453 12.364 5.42053 12.282 5.62353C12.795 6.18553 13.104 6.90253 13.104 7.77953C13.104 10.8645 11.234 11.5435 9.452 11.7425C9.739 11.9905 9.995 12.4805 9.995 13.2295C9.995 14.3035 9.985 15.1695 9.985 15.4325C9.985 15.6475 10.129 15.8975 10.535 15.8185C13.71 14.7545 16 11.7455 16 8.19853C16 3.76253 12.418 0.166534 7.999 0.166534Z" fill="#C4C4CC"/>
<path d="M29.6061 18.7885C29.8426 18.9465 30.1206 19.0308 30.405 19.0308L30.406 19.0318C30.7873 19.0313 31.1528 18.8795 31.4223 18.6097C31.6917 18.3399 31.843 17.9741 31.843 17.5928C31.843 17.3084 31.7587 17.0304 31.6007 16.7939C31.4427 16.5575 31.2181 16.3731 30.9553 16.2643C30.6926 16.1555 30.4034 16.127 30.1245 16.1825C29.8456 16.238 29.5893 16.3749 29.3882 16.576C29.1871 16.7771 29.0502 17.0334 28.9947 17.3123C28.9392 17.5913 28.9677 17.8804 29.0765 18.1431C29.1853 18.4059 29.3697 18.6305 29.6061 18.7885Z" fill="#323238"/>
<path fill-rule="evenodd" clip-rule="evenodd" d="M24.0003 30.1556C22.7828 30.1554 21.5927 29.7942 20.5805 29.1176C19.5683 28.4411 18.7794 27.4796 18.3137 26.3547C17.8479 25.2298 17.7261 23.9921 17.9637 22.798C18.2014 21.6039 18.7878 20.5071 19.6487 19.6463C20.5097 18.7854 21.6066 18.1992 22.8007 17.9618C23.9949 17.7243 25.2326 17.8463 26.3574 18.3123C27.4822 18.7782 28.4436 19.5673 29.1199 20.5796C29.7963 21.5919 30.1573 22.7821 30.1573 23.9996C30.1558 25.632 29.5066 27.1972 28.3522 28.3515C27.1979 29.5058 25.6328 30.154 24.0003 30.1556ZM24.0003 20.0001C23.2092 20.0001 22.4358 20.2347 21.778 20.6742C21.1202 21.1137 20.6075 21.7385 20.3048 22.4694C20.002 23.2003 19.9228 24.0045 20.0771 24.7805C20.2315 25.5564 20.6124 26.2691 21.1719 26.8285C21.7313 27.3879 22.444 27.7689 23.2199 27.9232C23.9958 28.0776 24.8001 27.9984 25.531 27.6956C26.2619 27.3929 26.8866 26.8802 27.3262 26.2224C27.7657 25.5646 28.0003 24.7912 28.0003 24.0001C28.0003 22.9392 27.5789 21.9218 26.8287 21.1717C26.0786 20.4215 25.0612 20.0001 24.0003 20.0001Z" fill="#323238"/>
</g>
<defs>
<clipPath id="clip0">
<rect width="24" height="24" fill="white" transform="translate(12 11.9999)"/>
</clipPath>
</defs>
</svg>
